<svg width="20" height="20" viewBox="0 0 20 20" xmlns="http://www.w3.org/2000/svg">
    <path fill-rule="evenodd" d="M2.16262 18.0027C2.00827 18.1233 1.77822 18.1583 1.57893 18.0916C1.37964 18.0249 1.25 17.8695 1.25 17.6974V3.15789C1.25 2.44937 1.97102 1.875 2.86043 1.875H17.1396C18.029 1.875 18.75 2.44937 18.75 3.15789V17.6974C18.75 17.8695 18.6204 18.0249 18.4211 18.0916C18.2218 18.1583 17.9917 18.1233 17.8374 18.0027L15.4755 16.1581L13.1135 18.0027C12.9048 18.1657 12.5707 18.1657 12.3619 18.0027L10 16.1581L7.63808 18.0027C7.42933 18.1657 7.09521 18.1657 6.88646 18.0027L4.52454 16.1581L2.16262 18.0027ZM5.11501 7.4342C5.11501 7.19803 5.35534 7.00657 5.65182 7.00657H14.2408C14.5372 7.00657 14.7776 7.19803 14.7776 7.4342C14.7776 7.67038 14.5372 7.86183 14.2408 7.86183H5.65182C5.35534 7.86183 5.11501 7.67038 5.11501 7.4342ZM5.11501 11.2829C5.11501 11.0467 5.35534 10.8553 5.65182 10.8553H14.2408C14.5372 10.8553 14.7776 11.0467 14.7776 11.2829C14.7776 11.5191 14.5372 11.7105 14.2408 11.7105H5.65182C5.35534 11.7105 5.11501 11.5191 5.11501 11.2829Z"/>
</svg>
