<svg width="20" height="20" viewBox="0 0 20 20" fill="none" xmlns="http://www.w3.org/2000/svg">
<path fill-rule="evenodd" clip-rule="evenodd" d="M1.57893 18.0916C1.77822 18.1583 2.00827 18.1233 2.16262 18.0027L4.52454 16.1581L6.88646 18.0027C7.09521 18.1657 7.42933 18.1657 7.63808 18.0027L10 16.1581L12.3619 18.0027C12.5707 18.1657 12.9048 18.1657 13.1135 18.0027L15.4755 16.1581L17.8374 18.0027C17.9917 18.1233 18.2218 18.1583 18.4211 18.0916C18.6204 18.0249 18.75 17.8695 18.75 17.6974V3.15789C18.75 2.44937 18.029 1.875 17.1396 1.875H2.86043C1.97102 1.875 1.25 2.44937 1.25 3.15789V17.6974C1.25 17.8695 1.37964 18.0249 1.57893 18.0916ZM12.7377 17.0985L10.3758 15.2538C10.1671 15.0908 9.83294 15.0908 9.6242 15.2538L7.26227 17.0985L4.90035 15.2538C4.6916 15.0908 4.35748 15.0908 4.14873 15.2538L2.32362 16.6792V3.15789C2.32362 2.92172 2.56396 2.73026 2.86043 2.73026H17.1396C17.436 2.73026 17.6764 2.92172 17.6764 3.15789V16.6792L15.8513 15.2538C15.6425 15.0908 15.3084 15.0908 15.0997 15.2538L12.7377 17.0985Z" fill="#8F94A3"/>
<path fill-rule="evenodd" clip-rule="evenodd" d="M5.11497 7.4342C5.11497 7.19803 5.35531 7.00657 5.65178 7.00657H14.2407C14.5372 7.00657 14.7776 7.19803 14.7776 7.4342C14.7776 7.67038 14.5372 7.86183 14.2407 7.86183H5.65178C5.35531 7.86183 5.11497 7.67038 5.11497 7.4342Z" fill="#8F94A3"/>
<path fill-rule="evenodd" clip-rule="evenodd" d="M5.11497 11.2829C5.11497 11.0467 5.35531 10.8553 5.65178 10.8553H14.2407C14.5372 10.8553 14.7776 11.0467 14.7776 11.2829C14.7776 11.5191 14.5372 11.7105 14.2407 11.7105H5.65178C5.35531 11.7105 5.11497 11.5191 5.11497 11.2829Z" fill="#8F94A3"/>
</svg>
