<svg width="20" height="20" viewBox="0 0 20 20" fill="none" xmlns="http://www.w3.org/2000/svg">
<path d="M12.4682 14.6117C12.022 15.022 11.4339 15.2583 10.6219 15.3499V16.5625H9.52985V15.3499C8.73226 15.2592 8.13972 15.0328 7.61943 14.6217C7.05128 14.1722 6.78571 13.5023 6.78571 12.5135V12.2555H7.95455V12.4428C7.95455 13.1028 8.16681 13.5963 8.5507 13.8327C9.05473 14.1423 9.54159 14.2929 10.0384 14.2929C10.7077 14.2929 11.1711 14.1539 11.4945 13.8551C11.854 13.5256 11.9696 13.2842 11.9696 12.8647C11.9696 12.4669 11.8242 12.1065 11.5712 11.8727C11.3165 11.6396 10.7908 11.3775 9.96251 11.072C9.10079 10.8074 8.36734 10.4562 7.85067 10.0592C7.35387 9.67799 7.09102 9.0696 7.09102 8.30059C7.09102 7.60731 7.34845 7.00225 7.83622 6.55283C8.27069 6.15251 8.85059 5.91115 9.60572 5.81544V4.53125H10.6987V5.81627C11.3987 5.91281 11.994 6.18497 12.4682 6.62357C12.9126 7.03138 13.1384 7.71384 13.1384 8.65097V8.83823H11.9696V8.65097C11.9696 8.03343 11.8187 7.60731 11.4945 7.30769C11.1142 6.95731 10.6887 6.80168 10.1143 6.80168C9.47926 6.80168 9.06647 6.93234 8.73407 7.23862C8.39353 7.55321 8.25985 7.85033 8.25985 8.30059C8.25985 8.72588 8.38631 9.04047 8.65819 9.29182C8.92556 9.53734 9.4901 9.80616 10.3365 10.0908C11.2009 10.3546 11.9353 10.7058 12.4546 11.1053C12.9514 11.4865 13.2143 12.0949 13.2143 12.8647C13.2143 13.598 12.984 14.1364 12.4682 14.6117Z" fill="#8F94A3"/>
<path fill-rule="evenodd" clip-rule="evenodd" d="M4.375 3.09211L6.25 1.25L8.125 3.09211L10 1.25L11.875 3.09211L13.75 1.25L15.625 3.09211L17.5 1.25V18.75H2.5V1.25L4.375 3.09211ZM6.25 2.768L8.125 4.61011L10 2.768L11.875 4.61011L13.75 2.768L15.625 4.61011L16.4286 3.82063V17.6563H3.57143V3.82063L4.375 4.61011L6.25 2.768Z" fill="#8F94A3"/>
</svg>
