<svg xmlns="http://www.w3.org/2000/svg" viewBox="0 0 20 20">
    <path d="M11.1 18.4H8.9v-2.2h2.2v2.2zm3.6 0h-2.9v-2.6c0-.2-.2-.4-.4-.4H8.5c-.2 0-.4.2-.4.4v2.6H5.3V1.6h9.5v16.8zm-7.1-5.7h-1v-1h1v1zm0-2.9h-1v-1h1v1zm0-3h-1v-1h1v1zm0-2.9h-1v-1h1v1zm2.9 8.8h-1v-1h1v1zm0-2.9h-1v-1h1v1zm0-3h-1v-1h1v1zm0-2.9h-1v-1h1v1zm2.9 8.8h-1v-1h1v1zm0-2.9h-1v-1h1v1zm0-3h-1v-1h1v1zm0-2.9h-1v-1h1v1zM4.5 18.4H1.4c-.2 0-.4.2-.4.4v.4h18v-.4c0-.2-.2-.4-.4-.4h-3.2V1.3c0-.2-.2-.4-.4-.4H4.9c-.2 0-.4.1-.4.4v17.1z" fill="#96989C"/>
</svg>
