<svg width="20" height="20" viewBox="0 0 20 20" xmlns="http://www.w3.org/2000/svg">
    <path d="M2.5 1.25L4.375 3.09211L6.25 1.25L8.125 3.09211L10 1.25L11.875 3.09211L13.75 1.25L15.625 3.09211L17.5 1.25V18.75H2.5V1.25ZM10.5355 15.9075C11.3518 15.8094 11.9428 15.5561 12.3913 15.1163C12.9098 14.607 13.1413 14.0299 13.1413 13.244C13.1413 12.4189 12.8771 11.7669 12.3777 11.3583C11.8557 10.9302 11.1175 10.5538 10.2486 10.271C9.3979 9.96593 8.83045 9.67781 8.5617 9.41467C8.28841 9.14529 8.1613 8.80811 8.1613 8.3523C8.1613 7.86973 8.29568 7.55129 8.63797 7.21411C8.97208 6.88585 9.38701 6.74581 10.0253 6.74581C10.6027 6.74581 11.0304 6.91261 11.4126 7.28815C11.7385 7.60927 11.8902 8.06597 11.8902 8.72783V8.92853H13.065V8.72783C13.065 7.72344 12.838 6.992 12.3913 6.55492C11.9147 6.08484 11.3164 5.79316 10.6127 5.68968V4.31244H9.51412V5.68879C8.75509 5.79137 8.1722 6.05005 7.73548 6.4791C7.2452 6.96078 6.98645 7.60927 6.98645 8.3523C6.98645 9.17651 7.25065 9.82856 7.75001 10.2371C8.26935 10.6626 9.00658 11.039 9.87275 11.3227C10.7053 11.65 11.2337 11.931 11.4898 12.1808C11.744 12.4314 11.8902 12.8176 11.8902 13.244C11.8902 13.6936 11.7739 13.9523 11.4126 14.3055C11.0876 14.6257 10.6218 14.7747 9.94901 14.7747C9.44965 14.7747 8.96028 14.6132 8.45366 14.2814C8.06779 14.0281 7.85442 13.4991 7.85442 12.7918V12.5911H6.67957V12.8676C6.67957 13.9273 6.9465 14.6454 7.51758 15.127C8.04055 15.5677 8.63615 15.8103 9.43785 15.9075V17.2072H10.5355V15.9075Z"/>
</svg>
